<?xml version="1.0" encoding="UTF-8" standalone="no"?>
<!-- Created with Inkscape (http://www.inkscape.org/) -->

<svg
   xmlns:dc="http://purl.org/dc/elements/1.1/"
   xmlns:cc="http://creativecommons.org/ns#"
   xmlns:rdf="http://www.w3.org/1999/02/22-rdf-syntax-ns#"
   xmlns:svg="http://www.w3.org/2000/svg"
   xmlns="http://www.w3.org/2000/svg"
   xmlns:sodipodi="http://sodipodi.sourceforge.net/DTD/sodipodi-0.dtd"
   xmlns:inkscape="http://www.inkscape.org/namespaces/inkscape"
   width="846.66663mm"
   height="846.66663mm"
   viewBox="0 0 846.66663 846.66663"
   version="1.1"
   id="svg5231"
   inkscape:version="0.92.0 r15299"
   sodipodi:docname="20x20sqaures.svg">
  <defs
     id="defs5225" />
  <sodipodi:namedview
     id="base"
     pagecolor="#ffffff"
     bordercolor="#666666"
     borderopacity="1.0"
     inkscape:pageopacity="0.0"
     inkscape:pageshadow="2"
     inkscape:zoom="0.16860078"
     inkscape:cx="949.05623"
     inkscape:cy="1006.9418"
     inkscape:document-units="mm"
     inkscape:current-layer="layer1"
     showgrid="true"
     inkscape:window-width="1817"
     inkscape:window-height="1046"
     inkscape:window-x="-11"
     inkscape:window-y="-11"
     inkscape:window-maximized="1">
    <inkscape:grid
       type="xygrid"
       id="grid5776"
       dotted="true"
       originx="10.583334"
       originy="391.58329" />
  </sodipodi:namedview>
  <metadata
     id="metadata5228">
    <rdf:RDF>
      <cc:Work
         rdf:about="">
        <dc:format>image/svg+xml</dc:format>
        <dc:type
           rdf:resource="http://purl.org/dc/dcmitype/StillImage" />
        <dc:title></dc:title>
      </cc:Work>
    </rdf:RDF>
  </metadata>
  <g
     inkscape:label="Layer 1"
     inkscape:groupmode="layer"
     id="layer1"
     transform="translate(10.583333,158.08337)">
    <path
       style="opacity:1;fill:#333333;fill-opacity:0.9591837;stroke:none;stroke-width:1.99999988;stroke-linecap:square;stroke-linejoin:round;stroke-miterlimit:4;stroke-dasharray:none;stroke-opacity:1"
       d="m -40,-597.48047 v 160 h 160 v -160 z m 160,160 v 160 h 160 v -160 z m 160,0 h 160 v -160 H 280 Z m 160,0 v 160 h 160 v -160 z m 160,0 h 160 v -160 H 600 Z m 160,0 v 160 h 160 v -160 z m 160,0 h 160 v -160 H 920 Z m 160,0 v 160 h 160 v -160 z m 160,0 h 160 v -160 h -160 z m 160,0 v 160 h 160 v -160 z m 160,0 h 160 v -160 h -160 z m 160,0 v 160 h 160 v -160 z m 160,0 h 160 v -160 h -160 z m 160,0 v 160 h 160 v -160 z m 160,0 h 160 v -160 h -160 z m 160,0 v 160 h 160 v -160 z m 160,0 h 160 v -160 h -160 z m 160,0 v 160 h 160 v -160 z m 160,0 h 160 v -160 h -160 z m 160,0 v 160 h 160 v -160 z m 0,160 h -160 v 160 h 160 z m 0,160 V 42.519531 h 160 V -117.48047 Z m 0,160.000001 H 2840 V 202.51953 h 160 z m 0,159.999999 v 160 h 160 v -160 z m 0,160 h -160 v 160 h 160 z m 0,160 v 160 h 160 v -160 z m 0,160 h -160 v 160 h 160 z m 0,160 v 159.99997 h 160 V 842.51953 Z m 0,159.99997 h -160 v 160 h 160 z m 0,160 v 160 h 160 v -160 z m 0,160 h -160 v 160 h 160 z m 0,160 v 160 h 160 v -160 z m 0,160 h -160 v 160 h 160 z m 0,160 v 160 h 160 v -160 z m 0,160 h -160 v 160 h 160 z m 0,160 v 160 h 160 v -160 z m 0,160 h -160 v 160 h 160 z m 0,160 v 160 h 160 v -160 z m -160,0 h -160 v 160 h 160 z m -160,0 v -160 h -160 v 160 z m -160,0 h -160 v 160 h 160 z m -160,0 v -160 h -160 v 160 z m -160,0 h -160 v 160 h 160 z m -160,0 v -160 h -160 v 160 z m -160,0 h -160 v 160 h 160 z m -160,0 v -160 h -160 v 160 z m -160,0 h -160 v 160 h 160 z m -160,0 v -160 h -160 v 160 z m -160,0 h -160 v 160 h 160 z m -160,0 v -160 H 920 v 160 z m -160,0 H 760 v 160 h 160 z m -160,0 v -160 H 600 v 160 z m -160,0 H 440 v 160 h 160 z m -160,0 v -160 H 280 v 160 z m -160,0 H 120 v 160 h 160 z m -160,0 v -160 H -40 v 160 z m 0,-160 h 160 v -160 H 120 Z m 0,-160 v -160 H -40 v 160 z m 0,-160 h 160 v -160 H 120 Z m 0,-160 v -160 H -40 v 160 z m 0,-160 h 160 v -160 H 120 Z m 0,-160 v -160 H -40 v 160 z m 0,-160 h 160 v -160 H 120 Z m 0,-160 v -160 H -40 v 160 z m 0,-160 H 280 V 842.51953 H 120 Z m 0,-159.99997 v -160 H -40 v 160 z m 0,-160 h 160 v -160 H 120 Z m 0,-160 v -160 H -40 v 160 z m 0,-160 h 160 v -160 H 120 Z m 0,-160 V 42.519531 H -40 V 202.51953 Z M 120,42.519531 H 280 V -117.48047 H 120 Z m 0,-160.000001 v -160 H -40 v 160 z m 160,0 h 160 v -160 H 280 Z m 160,0 V 42.519531 H 600 V -117.48047 Z m 160,0 h 160 v -160 H 600 Z m 160,0 V 42.519531 H 920 V -117.48047 Z m 160,0 h 160 v -160 H 920 Z m 160,0 V 42.519531 h 160 V -117.48047 Z m 160,0 h 160 v -160 h -160 z m 160,0 V 42.519531 h 160 V -117.48047 Z m 160,0 h 160 v -160 h -160 z m 160,0 V 42.519531 h 160 V -117.48047 Z m 160,0 h 160 v -160 h -160 z m 160,0 V 42.519531 h 160 V -117.48047 Z m 160,0 h 160 v -160 h -160 z m 160,0 V 42.519531 h 160 V -117.48047 Z m 160,0 h 160 v -160 h -160 z m 160,0 V 42.519531 h 160 V -117.48047 Z m 0,160.000001 H 2520 V 202.51953 h 160 z m 0,159.999999 v 160 h 160 v -160 z m 0,160 h -160 v 160 h 160 z m 0,160 v 160 h 160 v -160 z m 0,160 h -160 v 160 h 160 z m 0,160 v 159.99997 h 160 V 842.51953 Z m 0,159.99997 h -160 v 160 h 160 z m 0,160 v 160 h 160 v -160 z m 0,160 h -160 v 160 h 160 z m 0,160 v 160 h 160 v -160 z m 0,160 h -160 v 160 h 160 z m 0,160 v 160 h 160 v -160 z m 0,160 h -160 v 160 h 160 z m 0,160 v 160 h 160 v -160 z m -160,0 h -160 v 160 h 160 z m -160,0 v -160 h -160 v 160 z m -160,0 h -160 v 160 h 160 z m -160,0 v -160 h -160 v 160 z m -160,0 h -160 v 160 h 160 z m -160,0 v -160 h -160 v 160 z m -160,0 h -160 v 160 h 160 z m -160,0 v -160 h -160 v 160 z m -160,0 h -160 v 160 h 160 z m -160,0 v -160 H 920 v 160 z m -160,0 H 760 v 160 h 160 z m -160,0 v -160 H 600 v 160 z m -160,0 H 440 v 160 h 160 z m -160,0 v -160 H 280 v 160 z m 0,-160 h 160 v -160 H 440 Z m 0,-160 v -160 H 280 v 160 z m 0,-160 h 160 v -160 H 440 Z m 0,-160 v -160 H 280 v 160 z m 0,-160 h 160 v -160 H 440 Z m 0,-160 v -160 H 280 v 160 z m 0,-160 H 600 V 842.51953 H 440 Z m 0,-159.99997 v -160 H 280 v 160 z m 0,-160 h 160 v -160 H 440 Z m 0,-160 v -160 H 280 v 160 z m 0,-160 h 160 v -160 H 440 Z m 0,-160 V 42.519531 H 280 V 202.51953 Z m 160,0 H 760 V 42.519531 H 600 Z m 160,0 v 160 h 160 v -160 z m 160,0 h 160 V 42.519531 H 920 Z m 160,0 v 160 h 160 v -160 z m 160,0 h 160 V 42.519531 h -160 z m 160,0 v 160 h 160 v -160 z m 160,0 h 160 V 42.519531 h -160 z m 160,0 v 160 h 160 v -160 z m 160,0 h 160 V 42.519531 h -160 z m 160,0 v 160 h 160 v -160 z m 160,0 h 160 V 42.519531 h -160 z m 160,0 v 160 h 160 v -160 z m 0,160 h -160 v 160 h 160 z m 0,160 v 160 h 160 v -160 z m 0,160 h -160 v 160 h 160 z m 0,160 v 159.99997 h 160 V 842.51953 Z m 0,159.99997 h -160 v 160 h 160 z m 0,160 v 160 h 160 v -160 z m 0,160 h -160 v 160 h 160 z m 0,160 v 160 h 160 v -160 z m 0,160 h -160 v 160 h 160 z m 0,160 v 160 h 160 v -160 z m -160,0 h -160 v 160 h 160 z m -160,0 v -160 h -160 v 160 z m -160,0 h -160 v 160 h 160 z m -160,0 v -160 h -160 v 160 z m -160,0 h -160 v 160 h 160 z m -160,0 v -160 h -160 v 160 z m -160,0 h -160 v 160 h 160 z m -160,0 v -160 H 920 v 160 z m -160,0 H 760 v 160 h 160 z m -160,0 v -160 H 600 v 160 z m 0,-160 h 160 v -160 H 760 Z m 0,-160 v -160 H 600 v 160 z m 0,-160 h 160 v -160 H 760 Z m 0,-160 v -160 H 600 v 160 z m 0,-160 H 920 V 842.51953 H 760 Z m 0,-159.99997 v -160 H 600 v 160 z m 0,-160 h 160 v -160 H 760 Z m 0,-160 v -160 H 600 v 160 z m 160,0 h 160 v -160 H 920 Z m 160,0 v 160 h 160 v -160 z m 160,0 h 160 v -160 h -160 z m 160,0 v 160 h 160 v -160 z m 160,0 h 160 v -160 h -160 z m 160,0 v 160 h 160 v -160 z m 160,0 h 160 v -160 h -160 z m 160,0 v 160 h 160 v -160 z m 0,160 h -160 v 160 h 160 z m 0,160 v 159.99997 h 160 V 842.51953 Z m 0,159.99997 h -160 v 160 h 160 z m 0,160 v 160 h 160 v -160 z m 0,160 h -160 v 160 h 160 z m 0,160 v 160 h 160 v -160 z m -160,0 h -160 v 160 h 160 z m -160,0 v -160 h -160 v 160 z m -160,0 h -160 v 160 h 160 z m -160,0 v -160 h -160 v 160 z m -160,0 h -160 v 160 h 160 z m -160,0 v -160 H 920 v 160 z m 0,-160 h 160 v -160 h -160 z m 0,-160 v -160 H 920 v 160 z m 0,-160 h 160 V 842.51953 h -160 z m 0,-159.99997 v -160 H 920 v 160 z m 160,0 h 160 v -160 h -160 z m 160,0 v 159.99997 h 160 V 842.51953 Z m 160,0 h 160 v -160 h -160 z m 160,0 v 159.99997 h 160 V 842.51953 Z m 0,159.99997 h -160 v 160 h 160 z m 0,160 v 160 h 160 v -160 z m -160,0 h -160 v 160 h 160 z m -160,0 v -160 h -160 v 160 z"
       transform="scale(0.26458333)"
       id="use8066"
       inkscape:connector-curvature="0" />
  </g>
</svg>
